<svg version="1.1" xmlns="http://www.w3.org/2000/svg" xmlns:xlink="http://www.w3.org/1999/xlink" width="150" height="150" enable-background="new 0 0 150 150" xml:space="preserve"><rect id="backgroundrect" width="100%" height="100%" x="0" y="0" fill="none" stroke="none"/>

<g class="currentLayer" style=""><title>Layer 1</title><g id="alien_nofill_item" class="selected upvote" fill="#ffffff" fill-opacity="1">
	<circle fill="#" cx="74.46700286865234" cy="103.52100372314453" r="7.057000160217285" id="svg_2" fill-opacity="1"/>
	<path fill="#" d="M105,85.639V25.884H45v59.755h4.836v8.559c-0.159,0.094-0.317,0.194-0.463,0.318   c-1.35,1.136-1.52,3.154-0.381,4.502l16.323,19.336v5.763h18.307v-5.763l16.323-19.336c1.138-1.349,0.967-3.365-0.379-4.504   c-0.148-0.125-0.305-0.227-0.466-0.318v-8.557H105L105,85.639z M95.905,94.202c-0.31,0.179-0.599,0.403-0.843,0.689l-15.488,18.347   c-1.458-0.47-3.217-0.666-5.108-0.664c-1.889,0-3.646,0.197-5.104,0.664L53.874,94.895c-0.243-0.289-0.533-0.512-0.843-0.689   v-8.566h42.874V94.202L95.905,94.202z M47.13,83.51V28.015h55.741V83.51H47.13z" id="svg_3" fill-opacity="1"/>
	<path fill="#" d="M86.526,41.292c-3.149-2.952-7.29-4.647-11.358-4.647c-4.069,0-8.21,1.695-11.359,4.647   c-3.214,3.012-5.057,7.045-5.057,11.062c0,4.604,2.979,10.563,5.768,14.606c1.39,2.016,6.267,8.59,10.648,8.59   c4.381,0,9.258-6.575,10.648-8.591c2.787-4.042,5.766-10.001,5.766-14.605C91.582,48.337,89.74,44.305,86.526,41.292z    M83.781,65.558c-3.055,4.429-6.598,7.521-8.613,7.521c-2.018,0-5.56-3.091-8.614-7.521c-3.238-4.695-5.33-9.876-5.33-13.203   c0-6.927,6.646-13.237,13.945-13.237c7.298,0,13.944,6.31,13.944,13.239C89.113,55.68,87.02,60.862,83.781,65.558z" id="svg_4" fill-opacity="1"/>
	<path fill="#" d="M86.793,54c-0.622-1.482-2.064-1.792-3.165-1.793c-1.007,0-2.158,0.26-3.333,0.752   c-1.318,0.553-2.454,1.514-3.199,2.708c-0.627,1.003-0.867,2.046-0.609,2.654c0.325,0.776,1.829,1.581,3.781,1.581   c0.932,0,1.871-0.187,2.715-0.541c1.473-0.617,2.662-1.472,3.351-2.407C87.049,55.978,87.205,54.984,86.793,54z" id="svg_5" fill-opacity="1"/>
	<path fill="#" d="M73.852,58.323c0.53-1.265-0.968-4.17-3.812-5.363c-1.175-0.492-2.326-0.752-3.333-0.752   c-1.101,0-2.542,0.311-3.164,1.792c-0.99,2.363,1.436,4.367,3.813,5.362c0.845,0.354,1.782,0.541,2.714,0.541   c0.001,0,0.001,0,0.001,0C72.021,59.903,73.526,59.099,73.852,58.323z" id="svg_6" fill-opacity="1"/>
	<path fill="#" d="M77.988,65.541h-5.382c-0.196,0-0.354,0.158-0.354,0.353v1.765c0,0.196,0.157,0.354,0.354,0.354h5.382   c0.197,0,0.354-0.157,0.354-0.354v-1.765C78.343,65.699,78.184,65.541,77.988,65.541z" id="svg_7" fill-opacity="1"/>
</g></g></svg>