<svg version="1.1" xmlns="http://www.w3.org/2000/svg" xmlns:xlink="http://www.w3.org/1999/xlink" width="150" height="150" enable-background="new 0 0 150 150" xml:space="preserve"><rect id="backgroundrect" width="100%" height="100%" x="0" y="0" fill="none" stroke="none"/>


<g class="currentLayer" style=""><title>Layer 1</title><g id="svg_1" class="" fill="#ffffff" fill-opacity="1">
	<circle fill="#ffffff" cx="74.46600341796875" cy="103.52100372314453" r="7.057000160217285" id="svg_2" fill-opacity="1"/>
	<path fill="#ffffff" d="M105,85.639V25.884H45V85.64h4.836v8.558c-0.159,0.094-0.317,0.195-0.464,0.318   c-1.348,1.137-1.519,3.154-0.38,4.503l16.323,19.336v5.761h18.306v-5.761l16.324-19.336c1.139-1.349,0.967-3.366-0.379-4.505   c-0.148-0.124-0.305-0.227-0.465-0.318v-8.557H105L105,85.639z M95.906,94.202c-0.311,0.179-0.6,0.403-0.844,0.689l-15.488,18.347   c-1.457-0.47-3.219-0.666-5.108-0.664c-1.89,0-3.647,0.197-5.105,0.664L53.875,94.895c-0.244-0.289-0.534-0.512-0.844-0.689V85.64   h42.875V94.202L95.906,94.202z M47.13,83.51V28.015h55.741V83.51H47.13z" id="svg_3" fill-opacity="1"/>
</g><g id="svg_4" class="" fill="#ffffff" fill-opacity="1">
	<path fill="#ffffff" d="M75,41.143c-2.793,0-5.517,1.08-7.668,2.831l10.22,10.27c0.473-0.435,1.041-0.819,1.697-1.094   c2.404-1.009,4.762-0.857,5.531,0.976c0.734,1.755-0.646,3.466-2.875,4.494l2.404,2.417c1.633-2.93,2.758-6.027,2.758-8.39   C87.064,46.449,81.199,41.143,75,41.143z" id="svg_5" fill-opacity="1"/>
	<path fill="#ffffff" d="M68.401,58.756c-2.405-1.01-3.95-2.797-3.181-4.631c0.463-1.104,1.504-1.595,2.783-1.593l-4.124-4.144   c-0.603,1.327-0.946,2.766-0.946,4.258c0,6.198,7.74,17.455,12.065,17.455c1.735,0,4.018-1.811,6.131-4.377l-7.485-7.522   C72.777,59.112,70.499,59.635,68.401,58.756z" id="svg_6" fill-opacity="1"/>
	<path fill="#ffffff" d="M75,29.475c-14.418,0-26.148,11.73-26.148,26.147c0,14.419,11.73,26.147,26.148,26.147   c14.417,0,26.148-11.729,26.148-26.147C101.148,41.205,89.418,29.475,75,29.475z M75,78.295c-12.502,0-22.674-10.171-22.674-22.673   c0-5.646,2.076-10.818,5.504-14.792l31.875,32.034C85.744,76.248,80.607,78.295,75,78.295z M92.17,70.414L60.294,38.38   c3.962-3.384,9.099-5.431,14.706-5.431c12.502,0,22.674,10.171,22.674,22.673C97.674,61.27,95.598,66.44,92.17,70.414z" id="svg_7" fill-opacity="1"/>
</g></g></svg>